<?xml version="1.0" encoding="utf-8"?>
<!-- Generator: Adobe Illustrator 19.2.1, SVG Export Plug-In . SVG Version: 6.00 Build 0)  -->
<svg version="1.1" id="Слой_1" xmlns="http://www.w3.org/2000/svg" xmlns:xlink="http://www.w3.org/1999/xlink" x="0px" y="0px"
	 viewBox="0 0 266.5 83.5" style="enable-background:new 0 0 266.5 83.5;" xml:space="preserve">
<style type="text/css">
	.st0{fill:#010101;}
	.st1{fill:#FFFFFF;}
	.st2{fill:#FFFFFF;stroke:#FFFFFF;stroke-width:5;stroke-miterlimit:10;}
</style>
<g>
	<rect x="39.1" y="6.8" class="st0" width="224.4" height="42.3"/>
	<rect x="39.1" y="49.2" class="st0" width="208.3" height="30"/>
	<g>
		<path class="st1" d="M80.2,32.1v3.5c0,4.2-2.3,6.6-6.7,6.6s-6.7-2.4-6.7-6.6V21.9c0-4.2,2.3-6.6,6.7-6.6s6.7,2.4,6.7,6.6v2.6H76
			v-2.8c0-1.9-0.9-2.6-2.3-2.6s-2.3,0.7-2.3,2.6v14.2c0,1.9,0.9,2.6,2.3,2.6s2.3-0.7,2.3-2.6v-3.8H80.2z"/>
		<path class="st1" d="M82.6,21.9c0-4.2,2.4-6.6,6.8-6.6c4.4,0,6.8,2.4,6.8,6.6v13.7c0,4.2-2.4,6.6-6.8,6.6c-4.4,0-6.8-2.4-6.8-6.6
			V21.9z M87.1,35.9c0,1.9,0.9,2.6,2.3,2.6s2.3-0.7,2.3-2.6V21.7c0-1.9-0.9-2.6-2.3-2.6s-2.3,0.7-2.3,2.6V35.9z"/>
		<path class="st1" d="M108.8,34.3l3.1-18.7h6.3V42h-4.3V23.1L110.7,42h-4.3l-3.4-18.6V42h-3.9V15.6h6.3L108.8,34.3z"/>
		<path class="st1" d="M134.7,22.1v3.4c0,4.2-2.2,6.5-6.7,6.5h-2.1V42h-4.5V15.6h6.6C132.5,15.6,134.7,17.9,134.7,22.1z M125.9,19.4
			v8.9h2.1c1.4,0,2.2-0.6,2.2-2.5v-4c0-1.9-0.8-2.5-2.2-2.5H125.9z"/>
		<path class="st1" d="M137,15.6h4.5v22.6h7.4V42H137V15.6z"/>
		<path class="st1" d="M150.9,15.6h4.5V42h-4.5V15.6z"/>
		<path class="st1" d="M168.3,34.3l3.1-18.7h6.3V42h-4.3V23.1L170.2,42H166l-3.4-18.6V42h-3.9V15.6h6.3L168.3,34.3z"/>
		<path class="st1" d="M185.4,26.7h6.2v3.8h-6.2v7.7h7.8V42h-12.3V15.6h12.3v3.8h-7.8V26.7z"/>
		<path class="st1" d="M194.7,15.6h13.9v3.8h-4.7V42h-4.5V19.4h-4.7V15.6z"/>
		<path class="st1" d="M223.6,42h-4.6l-0.8-4.8h-5.5L212,42h-4.1l4.6-26.3h6.6L223.6,42z M213.3,33.6h4.3l-2.2-13.3L213.3,33.6z"/>
		<path class="st1" d="M235.1,42c-0.2-0.7-0.4-1.1-0.4-3.2v-4.1c0-2.4-0.9-3.3-3-3.3h-1.6V42h-4.5V15.6h6.8c4.7,0,6.7,2,6.7,6.1v2.1
			c0,2.7-0.9,4.5-3,5.3c2.3,0.9,3,2.9,3,5.6v4.1c0,1.3,0,2.2,0.5,3.2H235.1z M230.2,19.4v8.1h1.8c1.7,0,2.7-0.7,2.7-2.8v-2.6
			c0-1.9-0.7-2.7-2.3-2.7H230.2z"/>
		<path class="st1" d="M246,33.2l-5.7-17.6h4.7l3.4,12l3.4-12h4.3l-5.7,17.6V42H246V33.2z"/>
		<path class="st1" d="M73.9,68.1l3.4-21.5h4.1L77.1,73h-6.7l-4.4-26.3h4.6L73.9,68.1z"/>
		<path class="st1" d="M83.6,46.6h4.5V73h-4.5V46.6z"/>
		<path class="st1" d="M91.4,46.6h7.1c4.5,0,6.7,2.3,6.7,6.5v13.3c0,4.2-2.2,6.5-6.7,6.5h-7.1V46.6z M95.9,50.4v18.8h2.5
			c1.4,0,2.3-0.7,2.3-2.6V52.9c0-1.9-0.9-2.6-2.3-2.6H95.9z"/>
		<path class="st1" d="M112.6,57.7h6.2v3.8h-6.2v7.7h7.8V73h-12.3V46.6h12.3v3.8h-7.8V57.7z"/>
		<path class="st1" d="M122.9,52.9c0-4.2,2.4-6.6,6.8-6.6s6.8,2.4,6.8,6.6v13.7c0,4.2-2.4,6.6-6.8,6.6s-6.8-2.4-6.8-6.6V52.9z
			 M127.4,66.9c0,1.9,0.9,2.6,2.3,2.6c1.4,0,2.3-0.7,2.3-2.6V52.7c0-1.9-0.9-2.6-2.3-2.6c-1.4,0-2.3,0.7-2.3,2.6V66.9z"/>
		<path class="st1" d="M151.9,46.3c4.4,0,6.6,2.4,6.6,6.6v0.8h-4.3v-1.1c0-1.9-0.8-2.6-2.3-2.6s-2.3,0.7-2.3,2.6
			c0,5.4,8.8,6.4,8.8,14c0,4.2-2.3,6.6-6.7,6.6s-6.7-2.4-6.7-6.6V65h4.3v1.9c0,1.9,0.9,2.6,2.3,2.6c1.4,0,2.3-0.7,2.3-2.6
			c0-5.4-8.8-6.4-8.8-14C145.2,48.7,147.5,46.3,151.9,46.3z"/>
		<path class="st1" d="M165.6,57.7h6.2v3.8h-6.2v7.7h7.8V73h-12.3V46.6h12.3v3.8h-7.8V57.7z"/>
		<path class="st1" d="M185.7,73c-0.2-0.7-0.4-1.1-0.4-3.2v-4.1c0-2.4-0.9-3.3-3-3.3h-1.6V73h-4.5V46.6h6.8c4.7,0,6.7,2,6.7,6.1v2.1
			c0,2.7-0.9,4.5-3,5.3c2.3,0.9,3,2.9,3,5.6v4.1c0,1.3,0,2.2,0.5,3.2H185.7z M180.7,50.4v8.1h1.8c1.7,0,2.7-0.7,2.7-2.8v-2.6
			c0-1.9-0.7-2.7-2.3-2.7H180.7z"/>
		<path class="st1" d="M192.7,46.6h4.5V73h-4.5V46.6z"/>
		<path class="st1" d="M205,57.7h6.2v3.8H205v7.7h7.8V73h-12.3V46.6h12.3v3.8H205V57.7z"/>
		<path class="st1" d="M221.6,46.3c4.4,0,6.6,2.4,6.6,6.6v0.8H224v-1.1c0-1.9-0.8-2.6-2.3-2.6s-2.3,0.7-2.3,2.6
			c0,5.4,8.8,6.4,8.8,14c0,4.2-2.3,6.6-6.7,6.6s-6.7-2.4-6.7-6.6V65h4.3v1.9c0,1.9,0.9,2.6,2.3,2.6c1.4,0,2.3-0.7,2.3-2.6
			c0-5.4-8.8-6.4-8.8-14C215,48.7,217.3,46.3,221.6,46.3z"/>
	</g>
	<g>
		<path class="st2" d="M3.2,58.3l14-1.7c0.4,3.6,1.6,6.3,3.6,8.2c2,1.9,4.3,2.8,7.1,2.8c3,0,5.5-1.1,7.5-3.4c2-2.3,3.1-5.3,3.1-9.2
			c0-3.6-1-6.5-2.9-8.6c-2-2.1-4.3-3.2-7.2-3.2c-1.9,0-4.1,0.4-6.6,1.1l1.6-11.8c3.9,0.1,6.9-0.7,9-2.5c2.1-1.8,3.1-4.2,3.1-7.2
			c0-2.5-0.8-4.6-2.3-6.1c-1.5-1.5-3.5-2.3-6-2.3c-2.5,0-4.6,0.9-6.3,2.6c-1.7,1.7-2.8,4.2-3.2,7.5L4.3,22.3
			c0.9-4.6,2.3-8.2,4.2-10.9c1.9-2.7,4.5-4.9,7.8-6.4c3.3-1.6,7.1-2.3,11.2-2.3c7.1,0,12.8,2.3,17.1,6.8c3.5,3.7,5.3,7.9,5.3,12.6
			c0,6.6-3.6,11.9-10.9,15.8c4.3,0.9,7.8,3,10.4,6.2c2.6,3.2,3.9,7.1,3.9,11.7c0,6.6-2.4,12.3-7.3,16.9c-4.8,4.7-10.9,7-18.1,7
			c-6.8,0-12.5-2-17-5.9C6.5,69.8,3.9,64.6,3.2,58.3z"/>
	</g>
	<g>
		<path class="st0" d="M3.2,58.3l14-1.7c0.4,3.6,1.6,6.3,3.6,8.2c2,1.9,4.3,2.8,7.1,2.8c3,0,5.5-1.1,7.5-3.4c2-2.3,3.1-5.3,3.1-9.2
			c0-3.6-1-6.5-2.9-8.6c-2-2.1-4.3-3.2-7.2-3.2c-1.9,0-4.1,0.4-6.6,1.1l1.6-11.8c3.9,0.1,6.9-0.7,9-2.5c2.1-1.8,3.1-4.2,3.1-7.2
			c0-2.5-0.8-4.6-2.3-6.1c-1.5-1.5-3.5-2.3-6-2.3c-2.5,0-4.6,0.9-6.3,2.6c-1.7,1.7-2.8,4.2-3.2,7.5L4.3,22.3
			c0.9-4.6,2.3-8.2,4.2-10.9c1.9-2.7,4.5-4.9,7.8-6.4c3.3-1.6,7.1-2.3,11.2-2.3c7.1,0,12.8,2.3,17.1,6.8c3.5,3.7,5.3,7.9,5.3,12.6
			c0,6.6-3.6,11.9-10.9,15.8c4.3,0.9,7.8,3,10.4,6.2c2.6,3.2,3.9,7.1,3.9,11.7c0,6.6-2.4,12.3-7.3,16.9c-4.8,4.7-10.9,7-18.1,7
			c-6.8,0-12.5-2-17-5.9C6.5,69.8,3.9,64.6,3.2,58.3z"/>
	</g>
</g>
</svg>
