<?xml version="1.0" encoding="utf-8"?>
<!-- Generator: Adobe Illustrator 19.2.1, SVG Export Plug-In . SVG Version: 6.00 Build 0)  -->
<svg version="1.1" id="Layer_1" xmlns="http://www.w3.org/2000/svg" xmlns:xlink="http://www.w3.org/1999/xlink" x="0px" y="0px"
	 viewBox="0 0 108 149.9" style="enable-background:new 0 0 108 149.9;" xml:space="preserve">
<path d="M96.8,41.9H9.5c-6.1,0-9.5,3.8-9.5,9.9v69c0,16.2,11.6,29.1,27.8,29.1h50.7c16.2,0.1,29.4-12.9,29.5-29c0,0,0,0,0,0v-69
	C108,45.7,102.9,41.9,96.8,41.9z M102,120.8c-0.1,12.9-10.6,23.2-23.5,23.1H27.8C14.9,143.9,6,133.6,6,120.8v-69
	c0-2.8,0.7-3.9,3.5-3.9h87.3c2.8,0,5.2,1.1,5.2,3.9V120.8z"/>
<path d="M78,47.3V30C78,17.6,67,7.6,54,7.6S30,17.6,30,30v17.2h-6V30C24,14.4,37.7,1.8,54,1.8c16.3,0,30,12.7,30,28.3v17.2H78z"/>
</svg>
