<?xml version="1.0" encoding="utf-8"?>
<!-- Generator: Adobe Illustrator 19.2.1, SVG Export Plug-In . SVG Version: 6.00 Build 0)  -->
<svg version="1.1" id="Слой_1" xmlns="http://www.w3.org/2000/svg" xmlns:xlink="http://www.w3.org/1999/xlink" x="0px" y="0px"
	 viewBox="0 0 55.8 54.1" style="enable-background:new 0 0 55.8 54.1;" xml:space="preserve">
<style type="text/css">
	.st0{fill:#FFFFFF;}
</style>
<g>
	<path class="st0" d="M47.8,1.4c-6.7,0-13.4,0-20.2,0c-6.7,0-13.4,0-20,0c-3.8,0-5.8,2-5.8,5.7c0,13.4,0,26.8,0,40.2
		c0,3.7,2.1,5.7,5.7,5.7c13.4,0,26.9,0,40.3,0c3.6,0,5.7-2.1,5.7-5.6c0-13.5,0-27,0-40.4C53.5,3.4,51.5,1.4,47.8,1.4z M37.2,12.4
		c0.1-0.8,0-1.7,0-2.5c0-1.9,0.9-3.2,2.8-3.4c1.5-0.2,3-0.2,4.5,0c1.7,0.2,2.6,1.1,2.7,2.8c0.2,1.7,0.2,3.4,0,5.1
		c-0.2,2-1.3,2.8-3.3,2.8c-0.6,0-1.2,0-1.8,0c-2.5,0.2-3.9-0.3-4.5-1.6c-0.1-0.3-0.2-0.6-0.3-0.9c-0.1-0.3-0.1-0.7-0.1-1.1
		S37.2,12.9,37.2,12.4z M27.7,16.2c6.1,0,11,4.9,11,11c0,6.2-5,11.1-11.2,11.1c-6,0-11-5-11-11.1C16.6,21,21.5,16.2,27.7,16.2z
		 M49.9,25.1c0,7.4,0,14.8,0,22.2c0,1.9-0.3,2.2-2.1,2.2c-13.4,0-26.7,0-40.1,0c-1.9,0-2.2-0.3-2.2-2.1c0-7.4,0-14.9,0-22.3
		c0-1.1,0.3-1.5,1.4-1.4c1.8,0.1,3.6,0,5.4,0c0.8,0,1.1,0.2,1,1.1c-1.6,8.9,5.2,17.1,14.3,17.2C34,42,41,37.4,42.2,29.4
		c0.2-1.5,0-3-0.1-4.5c0-0.3-0.1-0.7-0.1-1.3c2.5,0,4.8,0,7.1,0c0.2,0,0.5,0.4,0.7,0.7C49.9,24.5,49.9,24.8,49.9,25.1z"/>
</g>
</svg>
