<?xml version="1.0" encoding="utf-8"?>
<!-- Generator: Adobe Illustrator 19.2.1, SVG Export Plug-In . SVG Version: 6.00 Build 0)  -->
<svg version="1.1" id="Layer_1" xmlns="http://www.w3.org/2000/svg" xmlns:xlink="http://www.w3.org/1999/xlink" x="0px" y="0px"
	 viewBox="0 0 114.8 114.8" style="enable-background:new 0 0 114.8 114.8;" xml:space="preserve">
<style type="text/css">
	.st0{display:none;opacity:0.25;enable-background:new    ;}
</style>
<path class="st0" d="M57.4,112.3c-30.3,0-54.9-24.6-54.9-54.9S27.1,2.5,57.4,2.5s54.9,24.6,54.9,54.9l0,0
	C112.2,87.7,87.7,112.2,57.4,112.3z"/>
<path d="M57.4,5c28.9,0,52.4,23.5,52.4,52.4c0,28.9-23.5,52.4-52.4,52.4C28.5,109.8,5,86.3,5,57.4C5,28.5,28.5,5,57.4,5 M57.4,0
	C25.7,0,0,25.7,0,57.4s25.7,57.4,57.4,57.4s57.4-25.7,57.4-57.4l0,0C114.8,25.7,89.1,0,57.4,0L57.4,0z"/>
<rect x="52.5" y="19.3" width="8" height="68"/>
<polygon points="46.3,85.3 56.3,102.6 66.3,85.3 "/>
</svg>
