<?xml version="1.0" encoding="utf-8"?>
<!-- Generator: Adobe Illustrator 19.2.1, SVG Export Plug-In . SVG Version: 6.00 Build 0)  -->
<svg version="1.1" id="Слой_1" xmlns="http://www.w3.org/2000/svg" xmlns:xlink="http://www.w3.org/1999/xlink" x="0px" y="0px"
	 viewBox="0 0 175.3 82.7" style="enable-background:new 0 0 175.3 82.7;" xml:space="preserve">
<style type="text/css">
	.st0{fill:#A71F2B;}
</style>
<path class="st0" d="M142.5,6.3l2.9-2l-3.3,1.2c-5.3,1.9-10.5,4.2-15.4,6.9c-5.5,3.1-10.2,7.3-13.8,12.4c-4.1,5.5-6.4,12-6.8,18.8
	c-0.2,7.1,2.3,14.9,6.8,19.7s11.1,6.8,16.6,7.1c4.4,0.4,8.8-0.7,12.5-2.9c2.8-1.8,4.1-4,4.2-6.4c0.1-2.4-1-4.6-3.1-5.8
	c-2.1-1-4.5-1.1-6.7-0.1c-1.7,0.9-2.1,2.5-4.6,2.7c-4,0-7.7-2-10-5.3c-2.8-4.1-3.9-10.9-2.5-17.4s5.2-12.6,9.9-17.7
	C133.2,13.4,137.7,9.6,142.5,6.3z"/>
<path d="M134.1,77.7l-2.9,2l3.3-1.2c5.3-1.9,10.5-4.2,15.4-6.9c5.5-3.1,10.2-7.3,13.9-12.4c4.1-5.5,6.5-12,6.8-18.8
	c0.2-7.1-2.3-14.9-6.8-19.7s-11.1-6.8-16.6-7.1c-4.4-0.4-8.8,0.7-12.5,2.9c-2.8,1.8-4.1,4-4.2,6.4c-0.1,2.4,1,4.6,3.1,5.8
	c2.1,1,4.5,1.1,6.6,0.1c1.7-0.9,2.1-2.5,4.6-2.7c4,0,7.7,2,10,5.3c2.8,4.1,3.9,10.9,2.5,17.4s-5.1,12.6-9.9,17.8
	C143.4,70.6,138.9,74.4,134.1,77.7z"/>
<path class="st0" d="M97.5,34.9c1-1.3,1.7-2.8,2.2-4.4c0.5-1.6,0.8-3.3,0.8-5.1c0-1.8-0.4-3.7-1.2-5.3c-0.8-1.5-2-2.8-3.5-3.7
	c-1.8-1.1-3.7-1.8-5.7-2.2c-2.7-0.5-5.4-0.8-8.1-0.7H67.8c-1,0-2.1,0.3-2.9,0.9c-0.9,0.7-1.5,1.8-1.6,2.9L53,68.6
	c-0.3,1-0.2,2,0.4,2.9c0.7,0.7,1.7,1,2.7,0.9h16.4c2.9,0,5.9-0.3,8.8-0.9c2.3-0.5,4.5-1.3,6.6-2.4c1.8-0.9,3.5-2.1,4.9-3.5
	c1.3-1.3,2.4-2.7,3.3-4.3c0.8-1.4,1.5-3,1.9-4.6c0.4-1.5,0.6-3,0.6-4.5c0-1.5-0.2-2.9-0.7-4.3c-0.4-1.2-1-2.4-1.8-3.3
	c-0.8-0.9-1.8-1.7-2.9-2.3c-1.1-0.6-2.4-1-3.7-1.3c1.6-0.6,3.1-1.4,4.5-2.4C95.4,37.5,96.6,36.3,97.5,34.9z M85.4,56.6
	C85,57.9,84.3,59,83.3,60c-1,1-2.3,1.8-3.7,2.4c-1.7,0.7-3.6,1-5.4,0.9h-8.4l3.3-16.8h7.9c3.2,0,5.4,0.6,6.9,1.7
	c1.4,1.1,2.2,2.8,2.2,4.6C86.1,54.1,85.9,55.4,85.4,56.6z M87.6,31.1c-0.8,2.5-2.6,4.6-5,5.6c-1.5,0.7-3.2,1-4.9,0.9h-6.7l3-15.3
	h6.5c1.2,0,2.4,0.1,3.5,0.4c0.8,0.2,1.6,0.5,2.3,1c0.6,0.4,1.1,1,1.4,1.6c0.3,0.7,0.5,1.5,0.4,2.2C88.1,28.9,87.9,30,87.6,31.1z"/>
<path class="st0" d="M50,34.9c1-1.3,1.7-2.8,2.2-4.4c0.5-1.6,0.8-3.3,0.8-5.1c0-1.8-0.4-3.7-1.2-5.3c-0.8-1.5-2-2.8-3.5-3.7
	c-1.8-1.1-3.7-1.8-5.7-2.2c-2.7-0.5-5.4-0.8-8.1-0.7H20.2c-1,0-2.1,0.3-2.9,0.9c-0.9,0.7-1.5,1.8-1.6,2.9L5.5,68.6
	c-0.3,1-0.2,2,0.4,2.9c0.7,0.7,1.7,1,2.7,0.9H25c2.9,0,5.9-0.3,8.8-0.9c2.3-0.5,4.5-1.3,6.6-2.4c1.8-0.9,3.5-2.1,4.9-3.5
	c1.3-1.3,2.4-2.7,3.3-4.3c0.8-1.4,1.5-3,1.9-4.6c0.4-1.5,0.6-3,0.6-4.5c0-1.5-0.2-2.9-0.7-4.3c-0.4-1.2-1-2.4-1.8-3.3
	c-0.8-0.9-1.8-1.7-2.9-2.3c-1.1-0.6-2.4-1-3.7-1.3c1.6-0.6,3.1-1.4,4.5-2.4C47.8,37.5,49,36.3,50,34.9z M37.9,56.6
	c-0.4,1.3-1.2,2.4-2.1,3.3c-1,1-2.3,1.8-3.6,2.4c-1.7,0.7-3.6,1-5.4,0.9h-8.5l3.4-16.8h7.9c3.1,0,5.4,0.6,6.9,1.7
	c1.4,1.1,2.2,2.8,2.2,4.6C38.5,54.1,38.3,55.4,37.9,56.6z M40,31.1c-0.8,2.5-2.6,4.6-5,5.6c-1.5,0.7-3.2,1-4.9,0.9h-6.8l3-15.3h6.6
	c1.2,0,2.4,0.1,3.5,0.4c0.8,0.2,1.6,0.5,2.3,1c0.6,0.4,1.1,1,1.4,1.6c0.3,0.7,0.5,1.5,0.5,2.2C40.6,28.9,40.4,30,40,31.1L40,31.1z"
	/>
</svg>
