<?xml version="1.0" encoding="utf-8"?>
<!-- Generator: Adobe Illustrator 19.2.1, SVG Export Plug-In . SVG Version: 6.00 Build 0)  -->
<svg version="1.1" id="Слой_1" xmlns="http://www.w3.org/2000/svg" xmlns:xlink="http://www.w3.org/1999/xlink" x="0px" y="0px"
	 viewBox="0 0 66.5 67.2" style="enable-background:new 0 0 66.5 67.2;" xml:space="preserve">
<style type="text/css">
	.st0{fill:#FFFFFF;}
</style>
<path class="st0" d="M33.5,1.5C15.3,1.3,1.5,16.1,1.2,32.7C0.9,50.6,15.4,65.3,33,65.2C50,65.3,64.6,51.6,64.9,33.9
	C65.2,16,50.8,1.8,33.5,1.5z M32.9,63.1C16.5,63.1,3.2,49.7,3.3,33C3.4,16.1,17.7,3.2,33.8,3.6C49.6,4,62.9,17.1,62.8,33.4
	C62.8,49.9,49.5,63.1,32.9,63.1z"/>
<path class="st0" d="M35.6,22.7c-1.3-0.3-2.6-0.3-3.9-0.1c-4.4,0.4-7.6,4.5-7.1,8.9c0.2,1.4,0.7,2.6,2.1,3.3c1,0.5,1.5,0.2,1.5-0.9
	c0-0.4-0.3-0.8-0.4-1.2c-0.2-0.8-0.6-1.7-0.5-2.5c0.2-2.6,1.8-4.2,4.1-5.1c3.6-1.4,6.7,0.5,7,4.3c0.2,2.2-0.3,4.4-2.1,6
	c-0.9,0.8-2.2,0.9-3,0.4c-0.9-0.6-0.8-1.5-0.6-2.5c0.4-1.3,0.7-2.6,1-3.9c0.2-0.8-0.1-1.5-1-1.9c-0.9-0.4-1.7-0.2-2.3,0.5
	c-1,1-1.4,2.4-1,3.7c0.4,1.2,0.1,2.3-0.2,3.4c-0.2,1-0.6,2-0.8,3c-0.4,2-0.8,4.1-0.3,6.3c2.4-1.9,2.7-4.6,3.4-7.2
	c4.2,2.3,7.8,0.9,9.3-3.6c0.1-0.3,0.2-0.7,0.3-1C42.5,27.6,40.3,23.8,35.6,22.7z"/>
</svg>
