<?xml version="1.0" encoding="utf-8"?>
<!-- Generator: Adobe Illustrator 19.2.1, SVG Export Plug-In . SVG Version: 6.00 Build 0)  -->
<svg version="1.1" id="Слой_1" xmlns="http://www.w3.org/2000/svg" xmlns:xlink="http://www.w3.org/1999/xlink" x="0px" y="0px"
	 viewBox="0 0 66.5 67.2" style="enable-background:new 0 0 66.5 67.2;" xml:space="preserve">
<style type="text/css">
	.st0{fill:#FFFFFF;}
</style>
<path class="st0" d="M33.4,1.4c-18,0-32.3,14-32.4,31.7C1,50.5,15.2,64.8,32.3,65C50.4,65.3,65,50.4,64.7,33.2
	C64.7,15.8,50.5,1.4,33.4,1.4z M32.5,63C16.5,62.9,3.2,49.5,3.2,33.2c0-16.6,13.2-29.8,29.9-29.8c16.5,0,29.7,13.4,29.6,30.2
	C62.5,49.7,49.3,63.1,32.5,63z"/>
<path class="st0" d="M43.6,24.6c-0.4-0.1-0.6,0-0.8,0.1c-1.1,0.6-2.1,0.9-3.3-0.1c-0.9-0.8-2.3-0.9-3.4-0.5c-0.9,0.4-2,0.9-2.5,1.7
	c-0.7,1.1-0.9,2.4-1.4,3.8c-3.4-0.2-6.5-1.9-9-4.7c-1.2,1.9-1,3.4,0.8,6c-0.5-0.1-1-0.2-1.5-0.4c0,2.3,1.3,3.6,3.1,4.6
	c-0.6,0.1-1,0.1-1.5,0.1c0.7,1.9,2,2.8,4,3.2c-1.9,1.5-4.1,1.8-6.4,1.8c2.3,1.8,6.2,2.6,9.2,2c6-1.1,10.2-5.5,11-11.5
	c0.2-1.4,0.3-2.7,1.6-3.6c0.3-0.2,0.5-0.6,0.9-1c-0.9,0.2-1.4,0.4-2.1,0.5C42.8,25.9,43.2,25.3,43.6,24.6z"/>
</svg>
