<?xml version="1.0" encoding="utf-8"?>
<!-- Generator: Adobe Illustrator 19.2.1, SVG Export Plug-In . SVG Version: 6.00 Build 0)  -->
<svg version="1.1" id="Слой_1" xmlns="http://www.w3.org/2000/svg" xmlns:xlink="http://www.w3.org/1999/xlink" x="0px" y="0px"
	 viewBox="0 0 66.5 67.2" style="enable-background:new 0 0 66.5 67.2;" xml:space="preserve">
<style type="text/css">
	.st0{fill:#FFFFFF;}
</style>
<path class="st0" d="M33.4,2.4c-17.7,0-32,14-32.2,31.2C0.9,51.4,15.5,66.2,33,66c17.5,0,31.8-14.1,31.8-31.4
	C64.9,16.8,50.8,2.4,33.4,2.4z M32.8,64C16.5,64,3.2,50.5,3.3,33.8C3.4,17,17.4,4.3,33.4,4.4c16.2,0.2,29.4,13.4,29.4,29.8
	C62.8,50.8,49.5,64,32.8,64z"/>
<path class="st0" d="M41.3,32.1c-2.8,0-5.5,0-8.3,0c-2.8,0-5.7,0-8.5,0c-3.4,0-5.9,2.6-6,6c0,2.1,0,4.2,0,6.4c0.1,3.4,2.3,6,5.7,6
	c5.9,0.1,11.9,0.1,17.9,0c2.9-0.1,5.1-2.2,5.3-5.1c0.2-2.7,0.2-5.4,0-8C47.2,34.1,44.7,32.1,41.3,32.1z M26.7,36.7
	c-0.7-0.1-0.9,0.3-0.9,1c0,2.8,0,5.7,0,8.5c0,0.3,0,0.5-0.1,0.9c-0.5,0-1,0-1.6,0c0-1.5,0-3,0-4.5c0-1.3,0-2.6,0-3.8
	c0-1.9,0-1.9-1.9-2.2c0-0.4,0-0.8,0-1.3c1.8,0,3.5,0,5.4,0c0,0.4,0,0.8,0.1,1.3C27.2,36.7,26.9,36.7,26.7,36.7z M32.4,47.1
	c-0.8,0.2-1.5,0.4-1.5-0.4c-1,0.2-1.9,0.7-2.4,0.4c-0.4-0.2-0.5-1.4-0.6-2.1c-0.1-2.1,0-4.2,0-6.3c1.1-0.4,1.5,0,1.4,1
	c-0.1,1.8,0,3.5,0,5.3c0,0.3,0.3,0.7,0.5,1c0.4-0.3,0.8-0.5,1-0.9c0.2-0.4,0.1-0.9,0.1-1.4c0-1.7,0-3.3,0-5.1
	c0.6-0.1,1.4-0.5,1.4,0.5C32.4,41.7,32.4,44.4,32.4,47.1z M38.8,45.1c0,2.2-0.9,2.7-2.6,1.7c-0.7,0.2-1.2,0.3-1.8,0.5
	c0-4.1,0-8,0-12c0.4,0,0.8-0.1,1.3-0.1c0,1.3,0,2.5,0,3.7C35.8,39,35.9,39,36,39c0.6-0.2,1.5-0.7,1.9-0.4c0.5,0.3,0.8,1.2,0.9,1.9
	C38.9,42,38.8,43.6,38.8,45.1z M44.9,42.9c-1.1,0-2,0-3.1,0c0,0.8-0.1,1.5,0,2.1c0.1,0.4,0.5,0.7,0.7,1c0.3-0.3,0.6-0.6,0.9-0.9
	c0.1-0.2,0.1-0.5,0.1-0.8c0.4,0,0.9,0,1.3,0c0.3,2.4-1.1,3.7-3,3c-1-0.3-1.4-1-1.4-2c0-1.6-0.1-3.3,0-4.9c0.1-1.3,1-2.2,2.4-2.2
	c1.2,0,2.1,0.9,2.2,2.2C45,41.2,44.9,42,44.9,42.9z"/>
<path class="st0" d="M33,32.1c2.8,0,5.5,0,8.3,0C38.6,32.1,35.8,32.1,33,32.1c-2.8,0-5.7,0-8.5,0C27.4,32.1,30.2,32.1,33,32.1z"/>
<path class="st0" d="M30.6,25.5C30.6,25.5,30.6,25.5,30.6,25.5c0,0.8,0,1.7,0,2.5c0,0.1,0,0.2,0,0.4c0.2,1.4,1.1,2.1,2.6,2.1
	c1.4,0,2.4-0.8,2.4-2.1c0.1-1.8,0.1-3.7,0-5.5c-0.1-1.3-1.2-2.1-2.6-2c-1.4,0.1-2.3,0.8-2.4,2.1C30.5,23.8,30.6,24.6,30.6,25.5z
	 M32.5,23.3c0-0.2,0.4-0.5,0.6-0.7c0.2,0.2,0.5,0.4,0.5,0.7c0,1.5,0.1,3,0,4.6c0,0.3-0.4,0.5-0.6,0.8c-0.2-0.3-0.5-0.5-0.5-0.8
	c-0.1-0.8,0-1.5,0-2.3c0,0,0,0,0,0C32.5,24.8,32.4,24.1,32.5,23.3z"/>
<path class="st0" d="M26.4,30.2c0.9,0,1.5,0,2.3,0c-0.8-4.4,0.9-8.2,2-12.2c-2.1-0.3-2.1-0.3-2.5,1.4c-0.2,0.9-0.4,1.8-0.8,2.9
	c-0.3-1.2-0.6-2.1-0.8-3.1c-0.4-1.7-0.7-1.8-2.5-1.2C25.6,22,27.1,25.9,26.4,30.2z"/>
<path class="st0" d="M39.1,30c0.2-0.1,0.5-0.3,0.7-0.2c0.6,0.1,1.2,0.4,1.9,0.6c0-3.3,0-6.3,0-9.3c-0.6,0-1.2,0-1.8,0c0,2.1,0,4,0,6
	c0,0.7-0.2,1.2-1.2,1.3c0-2.5,0-4.9,0-7.4c-0.7,0-1.2,0-1.9,0c0,2.6,0,5,0,7.5C36.8,30.3,37.6,30.7,39.1,30z"/>
<path class="st0" d="M37.3,42.9c0-0.8,0.1-1.7,0-2.5c0-0.3-0.5-0.7-0.8-0.8c-0.2,0-0.7,0.4-0.7,0.7c-0.1,1.6-0.1,3.3,0,4.9
	c0,0.3,0.6,0.6,0.9,0.9c0.2-0.3,0.6-0.6,0.7-0.9C37.4,44.4,37.3,43.6,37.3,42.9C37.3,42.9,37.3,42.9,37.3,42.9z"/>
<path class="st0" d="M42.2,39.7c-0.2,0.6-0.3,1.3-0.5,2c0.7,0,1.2,0,2.1,0c-0.3-0.8-0.6-1.5-0.9-2C42.9,39.6,42.2,39.6,42.2,39.7z"
	/>
</svg>
