<?xml version="1.0" encoding="utf-8"?>
<!-- Generator: Adobe Illustrator 19.2.1, SVG Export Plug-In . SVG Version: 6.00 Build 0)  -->
<svg version="1.1" id="Слой_1" xmlns="http://www.w3.org/2000/svg" xmlns:xlink="http://www.w3.org/1999/xlink" x="0px" y="0px"
	 viewBox="0 0 66.5 67.2" style="enable-background:new 0 0 66.5 67.2;" xml:space="preserve">
<style type="text/css">
	.st0{fill:#FFFFFF;}
</style>
<path class="st0" d="M33.5,2C15.8,1.8,1.2,15.8,1.1,33.7C1,51.4,15.2,65.7,32.8,65.7c17.7,0,31.9-14.1,31.9-31.8
	C64.7,16.5,50.6,2.2,33.5,2z M32.6,63.6c-16.1,0-29.4-13.5-29.4-29.8C3.1,17.1,17.1,3.8,33.5,4.1C49.1,4.4,63,17.3,62.7,34.5
	C62.4,50.4,49.4,63.7,32.6,63.6z"/>
<path class="st0" d="M44.5,39.5c-1.6-0.5-2.8-1.5-3.7-2.8c-1.4-2-1.1-2.3,0.8-2.9c0.2-0.1,0.4-0.1,0.5-0.3c0.3-0.4,0.6-0.9,0.8-1.4
	c-0.5-0.3-1-0.6-1.6-0.7c-0.4-0.1-0.9,0.2-1.5,0.4c0-1.5,0.1-2.8,0-4.1c-0.4-4-4.6-6.5-8.8-5.4c-3.1,0.8-5,3.1-5,6.3
	c0,1,0,2.1,0,3.2c-0.6-0.1-1.1-0.4-1.5-0.3c-0.5,0.1-1,0.4-1.5,0.7c0.2,0.5,0.4,1,0.7,1.3c0.3,0.3,0.8,0.4,1.2,0.5
	c1.2,0.5,1.3,0.8,0.7,2c-1,1.7-2.3,3-4.3,3.6c-0.3,0.1-0.8,0.4-0.8,0.7c0,0.3,0.3,0.7,0.6,0.9c0.6,0.3,1.3,0.4,1.9,0.7
	c0.4,0.2,0.8,0.5,0.9,0.8c0.3,0.8,0.7,1.1,1.4,0.9c1.7-0.5,3.1,0.1,4.5,1.1c2.1,1.5,4.3,1.5,6.3,0c1.4-1,2.8-1.6,4.6-1.2
	c0.3,0.1,1.1-0.2,1.1-0.5c0.2-1,0.9-1.2,1.7-1.3c0.4-0.1,0.9-0.2,1.2-0.4c0.3-0.2,0.7-0.6,0.7-1C45.4,40,44.9,39.6,44.5,39.5z"/>
</svg>
