<?xml version="1.0" encoding="utf-8"?>
<!-- Generator: Adobe Illustrator 19.2.1, SVG Export Plug-In . SVG Version: 6.00 Build 0)  -->
<svg version="1.1" id="Слой_1" xmlns="http://www.w3.org/2000/svg" xmlns:xlink="http://www.w3.org/1999/xlink" x="0px" y="0px"
	 viewBox="0 0 66.5 67.2" style="enable-background:new 0 0 66.5 67.2;" xml:space="preserve">
<style type="text/css">
	.st0{fill:#FFFFFF;}
</style>
<path class="st0" d="M33.6,1.5c-18,0-32.3,14.1-32.3,31.8c0,17.6,14.3,31.8,31.9,31.8C50.8,65.2,65,51,65,33.5
	C65,15.9,50.9,1.5,33.6,1.5z M32.8,63.1c-16.1,0-29.4-13.6-29.3-29.8c0-17,14.3-30.2,30.7-29.7C49.3,4.1,63,16.5,63,33.7
	C62.9,50,49.4,63.2,32.8,63.1z"/>
<path class="st0" d="M35,27.3c0-0.8,0.5-1.3,1.4-1.3c0.8,0,1.7,0,2.5,0c0-1.5,0-2.9,0-4.4c-1.5,0-2.9,0-4.4,0
	c-3.2,0-4.6,1.5-4.6,4.6c0,1.2,0,2.4,0,3.8c-1,0-1.8,0-2.6,0c0,1.2,0,2.3,0,3.5c0.9,0,1.7,0.1,2.7,0.1c0,3.9,0,7.6,0,11.4
	c1.8,0,3.4,0,5,0c0-2,0-3.9,0-5.7c0-1.9,0-3.7,0-5.7c0.9,0,1.7,0,2.5,0c0.3,0,0.7-0.2,0.8-0.5c0.4-1,0.6-2,1-3.1c-1.5,0-2.8,0-4.3,0
	C34.9,29,34.9,28.1,35,27.3z"/>
</svg>
