<?xml version="1.0" encoding="utf-8"?>
<!-- Generator: Adobe Illustrator 19.2.1, SVG Export Plug-In . SVG Version: 6.00 Build 0)  -->
<svg version="1.1" id="Слой_1" xmlns="http://www.w3.org/2000/svg" xmlns:xlink="http://www.w3.org/1999/xlink" x="0px" y="0px"
	 viewBox="0 0 66.5 67.2" style="enable-background:new 0 0 66.5 67.2;" xml:space="preserve">
<style type="text/css">
	.st0{fill:#FFFFFF;}
</style>
<path class="st0" d="M33.7,2C15.7,2,1.3,16.1,1.3,33.8c0,17.4,14.2,31.6,31.3,31.8C50.3,65.9,65.2,51.6,65,33.8
	C65,16.4,50.9,2,33.7,2z M32.9,63.6c-16.1,0-29.4-13.5-29.4-29.7c0-16.5,13.3-29.8,29.8-29.8C49.7,4.1,63,17.4,63,34
	C63,50.4,49.5,63.6,32.9,63.6z"/>
<path class="st0" d="M42.1,22.4c-5.9,0-11.8,0-17.8,0c-1.9,0-2.6,0.8-2.6,2.6c0,5.9,0,11.8,0,17.6c0,1.9,0.8,2.6,2.6,2.6
	c3,0,5.9,0,8.9,0c3,0,5.9,0,8.9,0c1.7,0,2.6-0.7,2.6-2.4c0-6,0-12,0-18C44.7,23.2,43.8,22.4,42.1,22.4z M39.7,24.6
	c2,0,2.3,0.3,2.3,2.4c0,2.2-0.2,2.4-2.2,2.4c-2,0-2.3-0.4-2.3-2.4C37.4,25,37.8,24.6,39.7,24.6z M33.3,28.9c2.7,0,4.8,2.3,4.8,5
	c0,2.8-2.2,4.9-5,4.8c-2.7,0-4.9-2.4-4.9-5C28.3,31,30.6,28.8,33.3,28.9z M41.9,43.8c-5.8,0-11.6,0-17.4,0c-0.4,0-1.1-0.4-1.1-0.7
	c-0.1-3.5,0-7.1,0-10.8c1.2,0,2.2,0,3.4,0c-0.3,2.7,0.2,5,2.4,6.7c1.3,1.1,2.9,1.6,4.6,1.4c4-0.4,6.2-3.5,5.9-8.1c1.1,0,2.2,0,3.5,0
	c0,1.8,0,3.5,0,5.3c0,1.6,0,3.3,0,4.9C43.1,43.4,42.9,43.8,41.9,43.8z"/>
<path class="st0" d="M24.4,45.3c3,0,5.9,0,8.9,0c3,0,5.9,0,8.9,0c-3,0-5.9,0-8.9,0C30.3,45.3,27.3,45.3,24.4,45.3z"/>
</svg>
